<?xml version="1.0" encoding="UTF-8"?>
<svg width="27px" height="27px" viewBox="0 0 27 27" version="1.1" xmlns="http://www.w3.org/2000/svg" xmlns:xlink="http://www.w3.org/1999/xlink">
    <title>logo备份 3</title>
    <defs>
        <radialGradient cx="85.3208857%" cy="59.5130408%" fx="85.3208857%" fy="59.5130408%" r="44.0594312%" gradientTransform="translate(0.8532, 0.5951), rotate(-172.9146), scale(1, 2.3712), translate(-0.8532, -0.5951)" id="radialGradient-1">
            <stop stop-color="#A244F2" offset="0%"></stop>
            <stop stop-color="#8247E5" offset="100%"></stop>
        </radialGradient>
    </defs>
    <g id="logo" stroke="none" stroke-width="1" fill="none" fill-rule="evenodd">
        <g id="logo备份-3" fill="url(#radialGradient-1)">
            <path d="M18.3685636,4.89709388 C23.0941765,4.89709388 26.9369393,8.81385886 27,13.6691847 C26.9881761,14.3192702 26.9294508,14.9616359 26.8309184,15.5909999 C26.8269771,15.599126 26.8269771,15.6072521 26.8269771,15.6153781 C26.4758077,17.3421677 25.6402532,18.8861207 24.4736298,20.0887788 L24.1740914,20.3853803 L20.3707416,24.1152457 L20.3396053,24.151813 L19.5982477,24.8750331 L19.5710528,24.8994113 C18.199088,26.0980064 16.5595092,26.7805962 14.8805174,26.9512436 C14.8529284,26.9553066 14.8257334,26.9593697 14.7977503,26.9593697 C14.5730964,26.9796848 14.3488367,26.9878109 14.1237888,26.995937 C14.0607281,26.995937 14.0020028,27 13.9428833,27 C13.2606451,26.995937 12.5827424,26.9065502 11.9170576,26.7359028 C11.3648822,26.5936966 10.9356751,26.4758686 10.5805645,26.3458515 C10.5490341,26.3417885 10.5218392,26.3295994 10.4903088,26.3133472 C10.3129505,26.2320865 10.1907704,26.0411239 10.198653,25.8257831 C10.2104768,25.5494968 10.4307952,25.3300929 10.6988033,25.3300929 C11.9284874,25.2975887 13.3237059,25.0578696 14.4946647,24.2050388 L14.5376248,24.1640021 L16.2954424,22.4372126 L21.51017,17.3218525 L21.698958,17.1349529 C21.9831254,16.8464775 22.2270916,16.5254978 22.4324331,16.1760769 C22.8813466,15.4081634 23.1414721,14.5102328 23.1414721,13.5472937 C23.1414721,10.735674 20.9304055,8.45631185 18.2073647,8.45631185 C17.1861751,8.45631185 16.2406584,8.77322852 15.4559465,9.3176751 C15.3341605,9.40299882 15.2115862,9.48832254 15.10123,9.58989839 C14.8962826,9.76460887 14.7114359,9.93931934 14.5143711,10.142471 L10.0721374,14.5386741 L9.86364287,14.7418258 C9.20111115,15.4004436 8.14523819,15.3756591 7.50280708,14.6894126 C6.94314317,14.0876773 6.88362961,13.1897467 7.31323078,12.5315352 C7.34476114,12.4827788 7.3802328,12.4299593 7.42003988,12.3812029 C7.63681111,12.0927275 7.87289469,11.8164411 8.12553171,11.5523439 L8.17282725,11.5035875 L12.3186756,7.44461633 L12.551212,7.21708641 C14.0887113,5.7787723 16.129908,4.89709388 18.3685636,4.89709388 Z M13.0575108,2.66453526e-13 C13.7389607,0.00406303421 14.4172576,0.0938560903 15.0833365,0.264503527 C15.6351178,0.406303421 16.064719,0.524131414 16.4190414,0.654148508 C16.4505718,0.658211543 16.478555,0.670806949 16.5100853,0.687059086 C16.6874436,0.767913466 16.8092296,0.958876074 16.8017412,1.17421689 C16.7899173,1.45050321 16.5692048,1.66990706 16.3008026,1.66990706 C15.0711185,1.70281764 13.6759,1.94213035 12.5053353,2.79536754 L12.4623752,2.83640418 L10.7041635,4.56319373 L5.49022413,9.6781475 L5.30064783,9.86504707 C5.01687458,10.1535225 4.77251428,10.4745022 4.56796107,10.8239231 C4.11825929,11.5918366 3.85852794,12.4897672 3.85852794,13.4527063 C3.85852794,16.264326 6.06920038,18.5440945 8.79302945,18.5440945 C9.81343077,18.5440945 10.7597357,18.2267715 11.5440535,17.6827312 C11.6662336,17.5974075 11.7880196,17.5120838 11.8983759,17.4105079 C12.1037174,17.2353911 12.2889582,17.0606807 12.486023,16.857529 L16.9274685,12.4617322 L17.1363571,12.2585805 C17.7984947,11.5999627 18.8551559,11.6243409 19.4975871,12.3109937 C20.057251,12.9123227 20.1163704,13.8102533 19.6863751,14.4684648 C19.6552389,14.5176275 19.6193731,14.5700407 19.5803542,14.6192034 C19.363583,14.9076788 19.1267112,15.1835589 18.8748624,15.4480624 L18.8275669,15.4968188 L14.6813244,19.5553837 L14.4483938,19.7833199 C12.9116829,21.221634 10.870092,22.1033124 8.63104222,22.1033124 C3.90542935,22.1033124 0.0626665927,18.1865474 -1.37134748e-12,13.3312216 C0.0114297559,12.6811361 0.0709433125,12.0387704 0.169475691,11.4090001 C0.173022857,11.400874 0.173022857,11.3927479 0.173022857,11.3850282 C0.524192253,9.65823863 1.35935269,8.11387932 2.52597605,6.9112212 L2.82590861,6.6146197 L6.62886429,2.88475429 L6.66039466,2.84818698 L7.40135814,2.1253732 L7.42934134,2.10099499 C8.80091204,0.901993595 10.4400967,0.219403848 12.1194826,0.0487564106 C12.1466775,0.0446933764 12.1746607,0.0406303421 12.2022497,0.0406303421 C12.4265094,0.0203151711 12.6515574,0.0121891026 12.8762112,0.00406303421 C12.9392719,0.00406303421 12.9979972,2.66453526e-13 13.0575108,2.66453526e-13 Z" id="形状结合"></path>
        </g>
    </g>
</svg>